<svg xmlns="http://www.w3.org/2000/svg" width="335" height="294" fill="none" viewBox="0 0 335 294"><mask id="mask0_1_50" style="mask-type:luminance" width="335" height="294" x="0" y="0" maskUnits="userSpaceOnUse"><path fill="#fff" d="M334.7 0H0V293.8H334.7V0Z"/></mask><g mask="url(#mask0_1_50)"><path fill="#05BDBA" d="M90.4553 245.325H87.295L71.5197 229.588V226.436L95.6361 202.379H112.344L114.572 204.601V221.268L90.4553 245.325Z"/><path fill="#05BDBA" d="M71.5197 67.3391V64.1866L87.295 48.4499H90.4553L114.572 72.5069V89.1737L112.344 91.3961H95.6361L71.5197 67.3391Z"/><path fill="#014847" d="M210.389 194.601H187.438L185.521 192.689V139.097C185.521 129.562 181.765 122.171 170.238 121.913C164.306 121.758 157.52 121.913 150.267 122.197L149.179 123.308V192.663L147.262 194.575H124.311L122.394 192.663V101.112L124.311 99.1997H175.963C196.038 99.1997 212.306 115.427 212.306 135.453V192.689L210.389 194.601Z"/><path fill="#05BDBA" d="M93.7192 160.285H1.91686L0 158.373V135.427L1.91686 133.515H93.7192L95.6361 135.427V158.373L93.7192 160.285Z"/><path fill="#05BDBA" d="M332.81 160.285H241.007L239.09 158.373V135.427L241.007 133.515H332.81L334.726 135.427V158.373L332.81 160.285Z"/><path fill="#05BDBA" d="M154.126 70.5949V1.91216L156.043 0H179.045L180.962 1.91216V70.5949L179.045 72.5069H156.043L154.126 70.5949Z"/><path fill="#05BDBA" d="M154.126 291.888V223.206L156.043 221.294H179.045L180.962 223.206V291.888L179.045 293.8H156.043L154.126 291.888Z"/></g></svg>